# Blender v2.82 (sub 7) OBJ File: ''
# www.blender.org
mtllib idle.mtl
o Cube
v 0.420091 1.000000 -0.420091
v 1.000000 -0.287890 -0.287890
v 0.420091 1.000000 0.420091
v 1.000000 -0.287890 0.287890
v 1.000000 0.287890 0.287890
v 1.000000 0.287890 -0.287890
v 0.392419 1.906394 0.555722
v 0.486515 2.019399 -0.257498
v 0.373649 1.083651 -0.144632
v 0.642075 1.281586 -0.413058
v 0.500328 1.394590 0.663631
v 0.373649 1.083651 0.419031
v 0.486515 2.019399 0.531896
v 0.642075 1.281585 0.687457
v 0.392419 1.906394 0.555722
v 0.500328 1.394590 0.663631
v 0.296884 1.781510 0.531773
v 0.356411 1.499175 0.591301
v 0.942233 0.942233 -1.060664
v 0.724074 -1.000000 -0.217222
v 0.712179 0.712179 1.000000
v 0.724074 -1.000000 0.217222
v 1.185623 0.102828 -0.102828
v 1.185623 -0.102828 -0.102828
v 1.185623 0.102828 0.102828
v 1.185623 -0.102828 0.102828
v 1.423296 0.102828 -0.102828
v 1.423296 -0.102828 -0.102828
v 1.423296 0.102828 0.102828
v 1.423296 -0.102828 0.102828
v 1.555413 0.102828 -0.102828
v 1.555413 -0.102828 -0.102828
v 1.555413 0.102828 0.102828
v 1.555413 -0.102828 0.102828
v 1.442016 0.073688 1.184361
v 1.442016 -0.073688 1.184361
v 1.536693 0.073688 1.184361
v 1.536693 -0.073688 1.184361
v 0.712179 -0.712179 1.000000
v 0.275926 -1.000000 0.217222
v 0.942233 -0.942233 -1.060664
v 0.377730 -1.184786 -0.118531
v 0.275926 -1.000000 -0.217222
v 0.377730 -1.184786 0.118531
v 0.622270 -1.184786 0.118531
v 0.622270 -1.184786 -0.118531
v 0.377730 -2.027222 -0.118531
v 0.377730 -2.027222 0.118531
v 0.622270 -2.027222 0.118531
v 0.622270 -2.027222 -0.118531
v 0.622270 -1.868028 -0.118531
v 0.377730 -1.868028 -0.118531
v 0.377730 -1.868028 0.118531
v 0.622270 -1.868028 0.118531
v 0.413998 -2.003612 0.533149
v 0.586002 -2.003612 0.533149
v 0.413998 -1.891638 0.533149
v 0.586002 -1.891638 0.533149
v 0.392419 1.896244 0.507583
v 0.500328 1.384440 0.615491
v 0.209074 1.514356 0.610710
v 0.209074 1.781510 0.531773
v 0.209074 1.499175 0.591301
v 0.209074 1.796691 0.551182
v 0.296884 1.796691 0.551182
v 0.356411 1.514356 0.610710
v 1.000000 1.000000 1.000000
v 1.000000 -1.000000 1.000000
v 0.712179 0.712179 1.059964
v 0.712179 -0.712179 1.059964
v 1.000000 1.000000 -1.000000
v 1.000000 -1.000000 -1.000000
v -0.420091 1.000000 -0.420091
v -1.000000 -0.287890 -0.287890
v -0.420091 1.000000 0.420091
v -1.000000 -0.287890 0.287890
v -1.000000 0.287890 0.287890
v -1.000000 0.287890 -0.287890
v -0.392419 1.906394 0.555722
v -0.486515 2.019399 -0.257498
v -0.373649 1.083651 -0.144632
v -0.642075 1.281586 -0.413058
v -0.500328 1.394590 0.663631
v -0.373649 1.083651 0.419031
v -0.486515 2.019399 0.531896
v -0.642075 1.281585 0.687457
v -0.392419 1.906394 0.555722
v -0.500328 1.394590 0.663631
v -0.296884 1.781510 0.531773
v -0.356411 1.499175 0.591301
v -0.942233 0.942233 -1.060664
v -0.724074 -1.000000 -0.217222
v -0.712179 0.712179 1.000000
v -0.724074 -1.000000 0.217222
v -1.185623 0.102828 -0.102828
v -1.185623 -0.102828 -0.102828
v -1.185623 0.102828 0.102828
v -1.185623 -0.102828 0.102828
v -1.423296 0.102828 -0.102828
v -1.423296 -0.102828 -0.102828
v -1.423296 0.102828 0.102828
v -1.423296 -0.102828 0.102828
v -1.555413 0.102828 -0.102828
v -1.555413 -0.102828 -0.102828
v -1.555413 0.102828 0.102828
v -1.555413 -0.102828 0.102828
v -1.442016 0.073688 1.184361
v -1.442016 -0.073688 1.184361
v -1.536693 0.073688 1.184361
v -1.536693 -0.073688 1.184361
v 0.000000 -0.942233 -1.060664
v 0.000000 0.712179 1.000000
v 0.000000 -0.712179 1.000000
v 0.000000 0.942233 -1.060664
v 0.000000 1.000000 0.420091
v 0.000000 1.000000 -0.420091
v 0.000000 2.019399 0.531896
v 0.000000 2.019399 -0.257498
v 0.000000 1.083651 -0.144632
v 0.000000 1.281586 -0.413058
v 0.000000 1.083651 0.419031
v 0.000000 1.281586 0.687457
v 0.000000 1.906394 0.555722
v 0.000000 1.394590 0.663631
v 0.000000 1.906394 0.555722
v 0.000000 1.394590 0.663631
v 0.000000 1.896244 0.507583
v 0.000000 1.384441 0.615491
v -0.712179 -0.712179 1.000000
v -0.275926 -1.000000 0.217222
v -0.942233 -0.942233 -1.060664
v -0.377730 -1.184786 -0.118531
v -0.275926 -1.000000 -0.217222
v -0.377730 -1.184786 0.118531
v -0.622270 -1.184786 0.118531
v -0.622270 -1.184786 -0.118531
v -0.377730 -2.027222 -0.118531
v -0.377730 -2.027222 0.118531
v -0.622270 -2.027222 0.118531
v -0.622270 -2.027222 -0.118531
v -0.622270 -1.868028 -0.118531
v -0.377730 -1.868028 -0.118531
v -0.377730 -1.868028 0.118531
v -0.622270 -1.868028 0.118531
v -0.413998 -2.003612 0.533149
v -0.586002 -2.003612 0.533149
v -0.413998 -1.891638 0.533149
v -0.586002 -1.891638 0.533149
v -0.392419 1.896244 0.507583
v -0.500328 1.384440 0.615491
v -0.209074 1.514356 0.610710
v -0.209074 1.781510 0.531773
v -0.209074 1.499175 0.591301
v -0.209074 1.796691 0.551182
v -0.296884 1.796691 0.551182
v -0.356411 1.514356 0.610710
v -1.000000 1.000000 1.000000
v -1.000000 -1.000000 1.000000
v 0.000000 -1.000000 1.000000
v 0.000000 1.000000 1.000000
v 0.000000 0.712179 1.059964
v 0.000000 -0.712179 1.059964
v -0.712179 0.712179 1.059964
v -0.712179 -0.712179 1.059964
v -1.000000 1.000000 -1.000000
v -1.000000 -1.000000 -1.000000
v 0.000000 1.000000 -1.000000
v 0.000000 -1.000000 -1.000000
vt 0.697489 0.677511
vt 0.697489 0.572489
vt 0.697489 0.572489
vt 0.697489 0.677511
vt 0.340509 0.715509
vt 0.284491 0.715509
vt 0.284491 0.715509
vt 0.340509 0.715509
vt 0.464014 0.589014
vt 0.535986 0.589014
vt 0.535986 0.589014
vt 0.464014 0.589014
vt 0.382221 0.375000
vt 0.617779 0.375000
vt 0.617779 0.492779
vt 0.382221 0.492779
vt 0.697489 0.572489
vt 0.697489 0.677511
vt 0.625000 0.750000
vt 0.625000 0.500000
vt 0.750000 0.572489
vt 0.750000 0.500000
vt 0.709530 0.677511
vt 0.711679 0.677511
vt 0.711679 0.677511
vt 0.709530 0.677511
vt 0.750000 0.677511
vt 0.697489 0.677511
vt 0.750000 0.677511
vt 0.750000 0.677511
vt 0.697489 0.572489
vt 0.750000 0.677511
vt 0.750000 0.677511
vt 0.750000 0.677511
vt 0.709530 0.677511
vt 0.750000 0.677511
vt 0.750000 0.677511
vt 0.737658 0.677511
vt 0.722468 0.677511
vt 0.722468 0.677511
vt 0.737658 0.677511
vt 0.711679 0.677511
vt 0.375000 0.500000
vt 0.464014 0.660986
vt 0.535986 0.660986
vt 0.375000 0.750000
vt 0.464014 0.660986
vt 0.464014 0.589014
vt 0.464014 0.660986
vt 0.535986 0.660986
vt 0.535986 0.589014
vt 0.535986 0.660986
vt 0.535986 0.660986
vt 0.535986 0.589014
vt 0.464014 0.589014
vt 0.464014 0.660986
vt 0.464014 0.660986
vt 0.464014 0.660986
vt 0.535986 0.660986
vt 0.535986 0.660986
vt 0.750000 0.677511
vt 0.750000 0.677511
vt 0.750000 0.572489
vt 0.750000 0.572489
vt 0.750000 0.572489
vt 0.750000 0.750000
vt 0.589022 0.785978
vt 0.589022 0.875000
vt 0.589022 0.875000
vt 0.589022 0.785978
vt 0.250000 0.750000
vt 0.340509 0.534491
vt 0.284491 0.534491
vt 0.250000 0.500000
vt 0.284491 0.534491
vt 0.340509 0.534491
vt 0.340509 0.534491
vt 0.284491 0.534491
vt 0.284491 0.534491
vt 0.340509 0.534491
vt 0.340509 0.715509
vt 0.284491 0.715509
vt 0.284491 0.715509
vt 0.284491 0.715509
vt 0.284491 0.715509
vt 0.340509 0.715509
vt 0.340509 0.715509
vt 0.340509 0.715509
vt 0.725338 0.677511
vt 0.735982 0.677511
vt 0.725338 0.677511
vt 0.735982 0.677511
vt 0.410978 0.785978
vt 0.410978 0.875000
vt 0.375000 0.875000
vt 0.625000 0.875000
vt 0.410978 0.785978
vt 0.410978 0.875000
vt 0.625000 0.375000
vt 0.375000 0.375000
vt 0.697489 0.677511
vt 0.697489 0.677511
vt 0.697489 0.572489
vt 0.697489 0.572489
vt 0.340509 0.715509
vt 0.340509 0.715509
vt 0.284491 0.715509
vt 0.284491 0.715509
vt 0.464014 0.589014
vt 0.464014 0.589014
vt 0.535986 0.589014
vt 0.535986 0.589014
vt 0.382221 0.492779
vt 0.617779 0.492779
vt 0.697489 0.572489
vt 0.625000 0.500000
vt 0.625000 0.750000
vt 0.697489 0.677511
vt 0.709530 0.677511
vt 0.709530 0.677511
vt 0.711679 0.677511
vt 0.711679 0.677511
vt 0.697489 0.677511
vt 0.697489 0.572489
vt 0.709530 0.677511
vt 0.737658 0.677511
vt 0.737658 0.677511
vt 0.722468 0.677511
vt 0.722468 0.677511
vt 0.711679 0.677511
vt 0.375000 0.500000
vt 0.464014 0.660986
vt 0.375000 0.750000
vt 0.535986 0.660986
vt 0.464014 0.660986
vt 0.464014 0.660986
vt 0.464014 0.589014
vt 0.535986 0.660986
vt 0.535986 0.589014
vt 0.535986 0.589014
vt 0.535986 0.660986
vt 0.535986 0.660986
vt 0.464014 0.589014
vt 0.464014 0.660986
vt 0.464014 0.660986
vt 0.464014 0.660986
vt 0.535986 0.660986
vt 0.535986 0.660986
vt 0.589022 0.785978
vt 0.589022 0.785978
vt 0.340509 0.534491
vt 0.284491 0.534491
vt 0.284491 0.534491
vt 0.284491 0.534491
vt 0.340509 0.534491
vt 0.340509 0.534491
vt 0.284491 0.534491
vt 0.340509 0.534491
vt 0.284491 0.715509
vt 0.340509 0.715509
vt 0.284491 0.715509
vt 0.284491 0.715509
vt 0.284491 0.715509
vt 0.340509 0.715509
vt 0.340509 0.715509
vt 0.340509 0.715509
vt 0.725338 0.677511
vt 0.735982 0.677511
vt 0.735982 0.677511
vt 0.725338 0.677511
vt 0.410978 0.785978
vt 0.410978 0.785978
vn 0.9785 0.2063 0.0000
vn 0.0000 -0.4711 0.8821
vn 0.7060 0.0000 -0.7082
vn 0.0000 0.0000 -1.0000
vn 0.0000 1.0000 0.0000
vn 0.0000 0.0000 1.0000
vn -0.0000 0.0127 0.9999
vn -0.0000 -0.8048 0.5935
vn 0.8743 0.4854 0.0000
vn 0.5935 -0.8048 -0.0000
vn 0.0000 0.2063 0.9785
vn 0.0000 0.9785 -0.2063
vn -0.0000 -0.7877 0.6161
vn -0.9794 -0.1977 0.0417
vn 1.0000 0.0000 0.0000
vn 0.0000 -1.0000 0.0000
vn 0.7060 -0.7082 0.0000
vn 0.7060 0.0000 0.7082
vn 0.7060 0.7082 0.0000
vn 0.0000 -0.9996 0.0269
vn 0.9999 0.0000 0.0173
vn -0.9999 0.0000 0.0173
vn 0.0000 0.9996 0.0269
vn 0.0000 -0.9785 0.2063
vn 0.0000 -0.8048 -0.5935
vn 0.0000 0.9569 -0.2906
vn -0.0000 0.2063 -0.9785
vn -0.8759 -0.4825 0.0000
vn 0.8759 -0.4825 0.0000
vn 0.0000 -0.4711 -0.8821
vn -0.9962 0.0000 0.0871
vn -1.0000 0.0000 0.0000
vn 0.9962 0.0000 0.0871
vn 0.0000 0.9984 0.0569
vn 0.0000 -0.9984 0.0569
vn 0.9746 0.1764 -0.1380
vn 0.0000 0.7877 -0.6161
vn 0.7242 0.0000 -0.6896
vn 0.0000 0.7242 -0.6896
vn 0.0000 -0.7242 -0.6896
vn -0.9785 0.2063 0.0000
vn -0.7060 0.0000 -0.7082
vn -0.8743 0.4854 0.0000
vn -0.5935 -0.8048 -0.0000
vn 0.9794 -0.1977 0.0417
vn -0.7060 -0.7082 0.0000
vn -0.7060 0.0000 0.7082
vn -0.7060 0.7082 0.0000
vn -0.9746 0.1764 -0.1380
vn -0.7242 0.0000 -0.6896
usemtl Material
s off
f 14/1/1 10/2/1 8/3/1 13/4/1
f 22/5/2 40/6/2 44/7/2 45/8/2
f 2/9/3 6/10/3 23/11/3 24/12/3
f 111/13/4 114/14/4 19/15/4 41/16/4
f 1/17/5 3/18/5 67/19/5 71/20/5
f 116/21/5 1/17/5 71/20/5 167/22/5
f 11/23/6 7/24/6 15/25/6 16/26/6
f 115/27/7 3/18/7 12/28/7 121/29/7
f 121/29/8 12/28/8 14/1/8 122/30/8
f 3/18/9 1/17/9 9/31/9 12/28/9
f 12/28/10 9/31/10 10/2/10 14/1/10
f 123/32/11 7/24/11 13/4/11 117/33/11
f 7/24/11 11/23/11 14/1/11 13/4/11
f 126/34/12 16/26/12 60/35/12 128/36/12
f 124/37/6 11/23/6 16/26/6 126/34/6
f 63/38/13 18/39/13 66/40/13 61/41/13
f 16/26/14 15/25/14 59/42/14 60/35/14
f 6/10/15 2/9/15 72/43/15 71/20/15
f 4/44/15 5/45/15 67/19/15 68/46/15
f 5/45/15 6/10/15 71/20/15 67/19/15
f 2/9/15 4/44/15 68/46/15 72/43/15
f 26/47/16 24/12/16 28/48/16 30/49/16
f 4/44/17 2/9/17 24/12/17 26/47/17
f 5/45/18 4/44/18 26/47/18 25/50/18
f 6/10/19 5/45/19 25/50/19 23/11/19
f 27/51/5 29/52/5 33/53/5 31/54/5
f 25/50/6 26/47/6 30/49/6 29/52/6
f 23/11/5 25/50/5 29/52/5 27/51/5
f 24/12/4 23/11/4 27/51/4 28/48/4
f 32/55/15 31/54/15 33/53/15 34/56/15
f 28/48/4 27/51/4 31/54/4 32/55/4
f 30/49/16 28/48/16 32/55/16 34/56/16
f 30/49/20 34/56/20 38/57/20 36/58/20
f 35/59/6 36/58/6 38/57/6 37/60/6
f 34/56/21 33/53/21 37/60/21 38/57/21
f 29/52/22 30/49/22 36/58/22 35/59/22
f 33/53/23 29/52/23 35/59/23 37/60/23
f 15/25/24 125/61/24 127/62/24 59/42/24
f 7/24/6 123/32/6 125/61/6 15/25/6
f 11/23/11 124/37/11 122/30/11 14/1/11
f 9/31/25 119/63/25 120/64/25 10/2/25
f 1/17/26 116/21/26 119/63/26 9/31/26
f 10/2/27 120/64/27 118/65/27 8/3/27
f 8/3/5 118/65/5 117/33/5 13/4/5
f 3/18/5 115/27/5 160/66/5 67/19/5
f 21/67/5 112/68/5 161/69/5 69/70/5
f 40/6/16 22/5/16 68/46/16 159/71/16
f 22/5/16 20/72/16 72/43/16 68/46/16
f 20/72/16 43/73/16 168/74/16 72/43/16
f 43/73/16 40/6/16 159/71/16 168/74/16
f 52/75/4 51/76/4 50/77/4 47/78/4
f 40/6/28 43/73/28 42/79/28 44/7/28
f 20/72/29 22/5/29 45/8/29 46/80/29
f 43/73/30 20/72/30 46/80/30 42/79/30
f 47/78/16 50/77/16 49/81/16 48/82/16
f 53/83/31 48/82/31 55/84/31 57/85/31
f 51/76/15 54/86/15 49/81/15 50/77/15
f 53/83/32 52/75/32 47/78/32 48/82/32
f 44/7/32 42/79/32 52/75/32 53/83/32
f 46/80/15 45/8/15 54/86/15 51/76/15
f 45/8/6 44/7/6 53/83/6 54/86/6
f 42/79/4 46/80/4 51/76/4 52/75/4
f 58/87/6 57/85/6 55/84/6 56/88/6
f 49/81/33 54/86/33 58/87/33 56/88/33
f 54/86/34 53/83/34 57/85/34 58/87/34
f 48/82/35 49/81/35 56/88/35 55/84/35
f 17/89/11 18/39/11 60/35/11 59/42/11
f 62/90/11 17/89/11 59/42/11 127/62/11
f 18/39/11 63/38/11 128/36/11 60/35/11
f 63/38/11 62/90/11 127/62/11 128/36/11
f 61/41/11 66/40/11 65/91/11 64/92/11
f 18/39/36 17/89/36 65/91/36 66/40/36
f 62/90/32 63/38/32 61/41/32 64/92/32
f 17/89/37 62/90/37 64/92/37 65/91/37
f 21/67/6 39/93/6 68/46/6 67/19/6
f 39/93/6 113/94/6 159/95/6 68/46/6
f 112/68/6 21/67/6 67/19/6 160/96/6
f 70/97/6 69/70/6 161/69/6 162/98/6
f 39/93/15 21/67/15 69/70/15 70/97/15
f 113/94/16 39/93/16 70/97/16 162/98/16
f 41/16/38 19/15/38 71/20/38 72/43/38
f 19/15/39 114/14/39 167/99/39 71/20/39
f 111/13/40 41/16/40 72/43/40 168/100/40
f 86/101/41 85/102/41 80/103/41 82/104/41
f 94/105/2 135/106/2 134/107/2 130/108/2
f 74/109/42 96/110/42 95/111/42 78/112/42
f 111/13/4 131/113/4 91/114/4 114/14/4
f 73/115/5 165/116/5 157/117/5 75/118/5
f 116/21/5 167/22/5 165/116/5 73/115/5
f 83/119/6 88/120/6 87/121/6 79/122/6
f 115/27/7 121/29/7 84/123/7 75/118/7
f 121/29/8 122/30/8 86/101/8 84/123/8
f 75/118/43 84/123/43 81/124/43 73/115/43
f 84/123/44 86/101/44 82/104/44 81/124/44
f 123/32/11 117/33/11 85/102/11 79/122/11
f 79/122/11 85/102/11 86/101/11 83/119/11
f 126/34/12 128/36/12 150/125/12 88/120/12
f 124/37/6 126/34/6 88/120/6 83/119/6
f 153/126/13 151/127/13 156/128/13 90/129/13
f 88/120/45 150/125/45 149/130/45 87/121/45
f 78/112/32 165/116/32 166/131/32 74/109/32
f 76/132/32 158/133/32 157/117/32 77/134/32
f 77/134/32 157/117/32 165/116/32 78/112/32
f 74/109/32 166/131/32 158/133/32 76/132/32
f 98/135/16 102/136/16 100/137/16 96/110/16
f 76/132/46 98/135/46 96/110/46 74/109/46
f 77/134/47 97/138/47 98/135/47 76/132/47
f 78/112/48 95/111/48 97/138/48 77/134/48
f 99/139/5 103/140/5 105/141/5 101/142/5
f 97/138/6 101/142/6 102/136/6 98/135/6
f 95/111/5 99/139/5 101/142/5 97/138/5
f 96/110/4 100/137/4 99/139/4 95/111/4
f 104/143/32 106/144/32 105/141/32 103/140/32
f 100/137/4 104/143/4 103/140/4 99/139/4
f 102/136/16 106/144/16 104/143/16 100/137/16
f 102/136/20 108/145/20 110/146/20 106/144/20
f 107/147/6 109/148/6 110/146/6 108/145/6
f 106/144/22 110/146/22 109/148/22 105/141/22
f 101/142/21 107/147/21 108/145/21 102/136/21
f 105/141/23 109/148/23 107/147/23 101/142/23
f 87/121/24 149/130/24 127/62/24 125/61/24
f 79/122/6 87/121/6 125/61/6 123/32/6
f 83/119/11 86/101/11 122/30/11 124/37/11
f 81/124/25 82/104/25 120/64/25 119/63/25
f 73/115/26 81/124/26 119/63/26 116/21/26
f 82/104/27 80/103/27 118/65/27 120/64/27
f 80/103/5 85/102/5 117/33/5 118/65/5
f 75/118/5 157/117/5 160/66/5 115/27/5
f 93/149/5 163/150/5 161/69/5 112/68/5
f 130/108/16 159/71/16 158/133/16 94/105/16
f 94/105/16 158/133/16 166/131/16 92/151/16
f 92/151/16 166/131/16 168/74/16 133/152/16
f 133/152/16 168/74/16 159/71/16 130/108/16
f 142/153/4 137/154/4 140/155/4 141/156/4
f 130/108/29 134/107/29 132/157/29 133/152/29
f 92/151/28 136/158/28 135/106/28 94/105/28
f 133/152/30 132/157/30 136/158/30 92/151/30
f 137/154/16 138/159/16 139/160/16 140/155/16
f 143/161/33 147/162/33 145/163/33 138/159/33
f 141/156/32 140/155/32 139/160/32 144/164/32
f 143/161/15 138/159/15 137/154/15 142/153/15
f 134/107/15 143/161/15 142/153/15 132/157/15
f 136/158/32 141/156/32 144/164/32 135/106/32
f 135/106/6 144/164/6 143/161/6 134/107/6
f 132/157/4 142/153/4 141/156/4 136/158/4
f 148/165/6 146/166/6 145/163/6 147/162/6
f 139/160/31 146/166/31 148/165/31 144/164/31
f 144/164/34 148/165/34 147/162/34 143/161/34
f 138/159/35 145/163/35 146/166/35 139/160/35
f 89/167/11 149/130/11 150/125/11 90/129/11
f 152/168/11 127/62/11 149/130/11 89/167/11
f 90/129/11 150/125/11 128/36/11 153/126/11
f 153/126/11 128/36/11 127/62/11 152/168/11
f 151/127/11 154/169/11 155/170/11 156/128/11
f 90/129/49 156/128/49 155/170/49 89/167/49
f 152/168/15 154/169/15 151/127/15 153/126/15
f 89/167/37 155/170/37 154/169/37 152/168/37
f 93/149/6 157/117/6 158/133/6 129/171/6
f 129/171/6 158/133/6 159/95/6 113/94/6
f 112/68/6 160/96/6 157/117/6 93/149/6
f 164/172/6 162/98/6 161/69/6 163/150/6
f 129/171/32 164/172/32 163/150/32 93/149/32
f 113/94/16 162/98/16 164/172/16 129/171/16
f 131/113/50 166/131/50 165/116/50 91/114/50
f 91/114/39 165/116/39 167/99/39 114/14/39
f 111/13/40 168/100/40 166/131/40 131/113/40
